<svg width="19" height="23" xmlns="http://www.w3.org/2000/svg">

 <g>
  <title>background</title>
  <rect fill="none" id="canvas_background" height="25" width="21" y="-1" x="-1"/>
 </g>
 <g>
  <title>Layer 1</title>
  <path id="svg_2" fill="#16a085" d="m0.896555,7.448277l0,2l0,1l0,3l0,1l0,5l0,1c0,1.105 0.8954,2 2,2l14,0c1.105,0 2,-0.895 2,-2l0,-1l0,-5l0,-4l0,-3l-18,0z"/>
  <path id="svg_3" fill="#ecf0f1" d="m0.896555,6.448253l0,2l0,1l0,3l0,1l0,5l0,1c0,1.1 0.8954,2 2,2l14,0c1.105,0 2,-0.9 2,-2l0,-1l0,-5l0,-4l0,-3l-18,0z"/>
  <path id="svg_4" fill="#bdc3c7" d="m0.896555,5.448253l0,2l0,1l0,3l0,1l0,5l0,1c0,1.1 0.8954,2 2,2l14,0c1.105,0 2,-0.9 2,-2l0,-1l0,-5l0,-4l0,-3l-18,0z"/>
  <path id="svg_5" fill="#ecf0f1" d="m0.896555,4.448253l0,2l0,1l0,3l0,1l0,5l0,1c0,1.1 0.8954,2 2,2l14,0c1.105,0 2,-0.9 2,-2l0,-1l0,-5l0,-4l0,-3l-18,0z"/>
  <path id="svg_6" fill="#16a085" d="m2.896555,0.448277c-1.1046,0 -2,0.8954 -2,2l0,1l0,4l0,2l0,1l0,3l0,1l0,5l0,1c0,1.105 0.8954,2 2,2l2,0l0,-1l-1.5,0c-0.8284,0 -1.5,-0.672 -1.5,-1.5s0.6716,-1.5 1.5,-1.5l12.5,0l1,0c1.105,0 2,-0.895 2,-2l0,-1l0,-5l0,-4l0,-3l0,-1c0,-1.1046 -0.895,-2 -2,-2l-4,0l-10,0z"/>
  <path id="svg_7" fill="#1abc9c" d="m5.896555,0.448277l0,18l1,0l9,0l1,0c1.105,0 2,-0.895 2,-2l0,-1l0,-5l0,-4l0,-3l0,-1c0,-1.1046 -0.895,-2 -2,-2l-4,0l-6,0l-1,0z"/>
 </g>
</svg>